<?xml version="1.0" encoding="UTF-8" standalone="no"?>
<!-- Generator: Adobe Illustrator 18.1.1, SVG Export Plug-In . SVG Version: 6.00 Build 0)  -->

<svg
   xmlns:dc="http://purl.org/dc/elements/1.1/"
   xmlns:cc="http://creativecommons.org/ns#"
   xmlns:rdf="http://www.w3.org/1999/02/22-rdf-syntax-ns#"
   xmlns:svg="http://www.w3.org/2000/svg"
   xmlns="http://www.w3.org/2000/svg"
   xmlns:sodipodi="http://sodipodi.sourceforge.net/DTD/sodipodi-0.dtd"
   xmlns:inkscape="http://www.inkscape.org/namespaces/inkscape"
   version="1.1"
   id="Capa_1"
   x="0px"
   y="0px"
   viewBox="0 0 100 100"
   style="enable-background:new 0 0 100 100;"
   xml:space="preserve"
   inkscape:version="0.91 r13725"
   sodipodi:docname="info.svg"><metadata
   id="metadata43"><rdf:RDF><cc:Work
       rdf:about=""><dc:format>image/svg+xml</dc:format><dc:type
         rdf:resource="http://purl.org/dc/dcmitype/StillImage" /><dc:title></dc:title></cc:Work></rdf:RDF></metadata><defs
   id="defs41" /><sodipodi:namedview
   pagecolor="#ffffff"
   bordercolor="#666666"
   borderopacity="1"
   objecttolerance="10"
   gridtolerance="10"
   guidetolerance="10"
   inkscape:pageopacity="0"
   inkscape:pageshadow="2"
   inkscape:window-width="1280"
   inkscape:window-height="738"
   id="namedview39"
   showgrid="false"
   inkscape:zoom="5.0584496"
   inkscape:cx="50"
   inkscape:cy="49.576271"
   inkscape:window-x="-8"
   inkscape:window-y="-8"
   inkscape:window-maximized="1"
   inkscape:current-layer="Capa_1" />
<g
   id="g3">
	<g
   id="g5">
		<path
   style="fill:#030104;"
   d="M62.162,0c6.696,0,10.043,4.567,10.043,9.789c0,6.522-5.814,12.555-13.391,12.555    c-6.344,0-10.045-3.752-9.869-9.947C48.945,7.176,53.35,0,62.162,0z M41.543,100c-5.287,0-9.164-3.262-5.463-17.615l6.07-25.457    c1.057-4.077,1.23-5.707,0-5.707c-1.588,0-8.451,2.816-12.51,5.59L27,52.406C39.863,41.48,54.662,35.072,61.004,35.072    c5.285,0,6.168,6.361,3.525,16.148L57.58,77.98c-1.234,4.729-0.703,6.359,0.527,6.359c1.586,0,6.787-1.963,11.896-6.041L73,82.377    C60.488,95.1,46.83,100,41.543,100z"
   id="path7" />
	</g>
</g>
<g
   id="g9">
</g>
<g
   id="g11">
</g>
<g
   id="g13">
</g>
<g
   id="g15">
</g>
<g
   id="g17">
</g>
<g
   id="g19">
</g>
<g
   id="g21">
</g>
<g
   id="g23">
</g>
<g
   id="g25">
</g>
<g
   id="g27">
</g>
<g
   id="g29">
</g>
<g
   id="g31">
</g>
<g
   id="g33">
</g>
<g
   id="g35">
</g>
<g
   id="g37">
</g>
<path
   style="fill:#808080"
   d="m 39.707804,99.763967 c -1.242892,-0.261894 -2.799277,-1.199822 -3.498324,-2.108205 -1.072881,-1.394164 -1.373253,-2.735437 -1.364485,-6.092946 0.0053,-2.011025 0.12065,-3.537922 0.358576,-4.744537 0.192957,-0.97856 2.035394,-8.860262 4.094303,-17.51489 2.237004,-9.403251 3.743472,-16.129632 3.743472,-16.714608 0,-1.576397 -0.416864,-1.739171 -2.670976,-1.042947 -2.808655,0.867505 -7.927293,3.270393 -10.19616,4.786474 l -0.511573,0.341836 -1.258469,-2.108454 -1.25847,-2.108456 0.880441,-0.768169 c 2.456736,-2.143459 8.513941,-6.410369 12.148716,-8.557987 4.669993,-2.759278 10.006701,-5.244509 14.159341,-6.59381 2.404557,-0.781302 5.330977,-1.41467 6.536362,-1.41467 2.228329,0 3.824203,1.257062 4.525015,3.564331 0.389503,1.282352 0.420884,1.713165 0.321555,4.414226 -0.06684,1.817554 -0.261226,3.691999 -0.494913,4.772385 -0.211661,0.978561 -2.142522,8.540166 -4.290802,16.803568 -3.299098,12.690044 -3.921433,15.307556 -4.005526,16.847053 -0.08272,1.514357 -0.0413,1.911614 0.244881,2.348374 0.322502,0.492198 0.415499,0.518837 1.459872,0.418166 1.997524,-0.192546 6.389605,-2.289243 9.600786,-4.583237 l 1.76393,-1.260109 1.434951,1.912038 1.434952,1.912039 -2.066847,2.018219 c -6.190928,6.045279 -14.795988,11.512788 -22.122929,14.056536 -3.656476,1.269444 -7.093125,1.812773 -8.967679,1.41778 z"
   id="path3371"
   inkscape:connector-curvature="0" /><path
   style="fill:#808080"
   d="m 56.130065,21.985029 c -3.595355,-0.820374 -5.954621,-3.057725 -6.784221,-6.433645 -0.373617,-1.520369 -0.319998,-4.570966 0.105977,-6.0295156 1.644217,-5.6298446 6.681062,-9.39740551 12.549873,-9.3873069 6.332323,0.0108962 10.425512,4.2033442 10.033597,10.2769075 -0.330198,5.117125 -3.94618,9.550671 -9.126197,11.189608 -1.994493,0.631049 -4.960006,0.79901 -6.779029,0.383952 z"
   id="path3373"
   inkscape:connector-curvature="0" /></svg>